<svg xmlns="http://www.w3.org/2000/svg" xmlns:xlink="http://www.w3.org/1999/xlink" width="500" zoomAndPan="magnify" viewBox="0 0 375 374.999991" height="500" preserveAspectRatio="xMidYMid meet" version="1.0"><defs><g><g id="id1"/></g><clipPath id="id2"><path d="M 7.40625 8.347656 L 365.90625 8.347656 L 365.90625 366.847656 L 7.40625 366.847656 Z M 7.40625 8.347656 " clip-rule="nonzero"/></clipPath><clipPath id="id3"><path d="M 272.523438 302 L 296 302 L 296 341 L 272.523438 341 Z M 272.523438 302 " clip-rule="nonzero"/></clipPath><clipPath id="id4"><path d="M 330 302 L 352.773438 302 L 352.773438 341 L 330 341 Z M 330 302 " clip-rule="nonzero"/></clipPath><clipPath id="id5"><path d="M 299 288 L 329 288 L 329 354.671875 L 299 354.671875 Z M 299 288 " clip-rule="nonzero"/></clipPath></defs><rect x="-37.5" width="450" fill="rgb(100%, 100%, 100%)" y="-37.499999" height="449.999989" fill-opacity="1"/><rect x="-37.5" width="450" fill="rgb(100%, 100%, 100%)" y="-37.499999" height="449.999989" fill-opacity="1"/><rect x="-37.5" width="450" fill="rgb(100%, 100%, 100%)" y="-37.499999" height="449.999989" fill-opacity="1"/><rect x="-37.5" width="450" fill="rgb(100%, 100%, 100%)" y="-37.499999" height="449.999989" fill-opacity="1"/><g clip-path="url(#id2)"><path fill="rgb(0%, 0%, 0%)" d="M 84.449219 8.347656 L 365.914062 8.347656 L 365.914062 366.855469 L 7.40625 366.855469 L 7.40625 312.699219 C 8.34375 313.890625 9.285156 315.078125 10.238281 316.261719 L 10.238281 364.023438 L 363.078125 364.023438 L 363.078125 11.175781 L 82.808594 11.175781 C 83.347656 10.265625 83.871094 9.355469 84.398438 8.4375 Z M 84.449219 8.347656 " fill-opacity="1" fill-rule="evenodd"/></g><g fill="rgb(0%, 0%, 0%)" fill-opacity="1"><g transform="translate(12.982103, 247.702068)"><g><path d="M 119.765625 -6.203125 C 124.503906 -5.472656 129.25 -4.257812 134 -2.5625 L 134 0 L 84.53125 0 L 84.53125 -2.734375 C 89.03125 -4.441406 93.957031 -5.597656 99.3125 -6.203125 L 89.828125 -33.046875 L 36.515625 -33.046875 L 26.84375 -6.03125 C 32.070312 -5.414062 37.117188 -4.195312 41.984375 -2.375 L 41.984375 0 L 1.28125 0 L 1.28125 -2.921875 C 3.46875 -3.648438 5.929688 -4.378906 8.671875 -5.109375 C 11.410156 -5.835938 13.691406 -6.328125 15.515625 -6.578125 L 60.421875 -128.53125 L 74.84375 -128.53125 Z M 87.265625 -40.34375 L 63.34375 -107.71875 L 39.25 -40.34375 Z M 87.265625 -40.34375 "/></g></g></g><g fill="rgb(0%, 0%, 0%)" fill-opacity="1"><g transform="translate(192.065811, 247.702068)"><g><path d="M 6.75 -2.375 C 11.257812 -3.832031 16.128906 -4.988281 21.359375 -5.84375 L 21.359375 -121.59375 C 14.910156 -122.925781 10.039062 -124.140625 6.75 -125.234375 L 6.75 -127.796875 L 44.359375 -127.796875 L 83.796875 -30.859375 L 125.78125 -127.796875 L 163.21875 -127.796875 L 163.21875 -125.234375 C 159.320312 -123.898438 154.453125 -122.625 148.609375 -121.40625 L 148.609375 -5.84375 C 153.835938 -4.988281 158.707031 -3.832031 163.21875 -2.375 L 163.21875 0 L 113.1875 0 L 113.1875 -2.375 C 117.445312 -3.832031 122.316406 -5.050781 127.796875 -6.03125 L 127.796875 -112.09375 L 84.890625 -14.0625 L 72.84375 -14.0625 L 30.671875 -113.546875 L 30.671875 -6.03125 C 36.148438 -5.050781 41.019531 -3.832031 45.28125 -2.375 L 45.28125 0 L 6.75 0 Z M 6.75 -2.375 "/></g></g></g><g clip-path="url(#id3)"><path fill="rgb(13.729858%, 12.159729%, 12.548828%)" d="M 292.773438 340.703125 C 292.152344 340.703125 291.53125 340.464844 291.058594 339.992188 L 272.625 321.460938 L 291.058594 302.929688 C 292.003906 301.980469 293.539062 301.980469 294.488281 302.929688 C 295.433594 303.882812 295.433594 305.425781 294.488281 306.375 L 279.480469 321.460938 L 294.488281 336.542969 C 295.433594 337.496094 295.433594 339.039062 294.488281 339.992188 C 294.011719 340.464844 293.394531 340.703125 292.773438 340.703125 " fill-opacity="1" fill-rule="nonzero"/></g><g clip-path="url(#id4)"><path fill="rgb(13.729858%, 12.159729%, 12.548828%)" d="M 332.535156 340.703125 C 331.914062 340.703125 331.292969 340.464844 330.820312 339.992188 C 329.871094 339.039062 329.871094 337.496094 330.820312 336.542969 L 345.824219 321.460938 L 330.820312 306.375 C 329.871094 305.425781 329.871094 303.882812 330.820312 302.929688 C 331.765625 301.980469 333.300781 301.980469 334.246094 302.929688 L 352.683594 321.460938 L 334.246094 339.992188 C 333.773438 340.464844 333.152344 340.703125 332.535156 340.703125 " fill-opacity="1" fill-rule="nonzero"/></g><g clip-path="url(#id5)"><path fill="rgb(13.729858%, 12.159729%, 12.548828%)" d="M 301.777344 354.675781 C 301.476562 354.675781 301.167969 354.621094 300.875 354.5 C 299.632812 354 299.027344 352.578125 299.527344 351.332031 L 324.144531 289.773438 C 324.644531 288.523438 326.054688 287.917969 327.296875 288.421875 C 328.539062 288.921875 329.140625 290.34375 328.640625 291.589844 L 304.027344 353.148438 C 303.644531 354.097656 302.738281 354.675781 301.777344 354.675781 " fill-opacity="1" fill-rule="nonzero"/></g></svg>